<svg width="1020" height="238" viewBox="0 0 1020 238" fill="none" xmlns="http://www.w3.org/2000/svg">
<path d="M82 2.5H938C981.907 2.5 1017.5 38.0934 1017.5 82V156C1017.5 199.907 981.907 235.5 938 235.5H82C38.0934 235.5 2.5 199.907 2.5 156V82C2.5 38.0934 38.0934 2.5 82 2.5Z" fill="white" stroke="#4F2789" stroke-width="5"/>
<path d="M263 108.28H276.6V113.8H263V108.28ZM235.64 130.44H240.28C251.4 130.44 258.04 130.2 266.04 128.6L266.68 134.04C258.44 135.64 251.56 135.88 240.28 135.88H235.64V130.44ZM235.64 89.64H262.44V95H241.96V132.28H235.64V89.64ZM240.04 109.16H259.16V114.44H240.04V109.16ZM287.96 80.92H294.36V153.24H287.96V80.92ZM273.4 82.6H279.72V149.56H273.4V82.6ZM335.554 85.88H341.314V91.4C341.314 107.16 326.674 119.4 312.194 122.68L309.234 117.16C321.954 114.76 335.554 103.72 335.554 91.4V85.88ZM336.754 85.88H342.514V91.4C342.514 103.8 356.194 114.76 368.834 117.16L365.874 122.68C351.474 119.4 336.754 107.24 336.754 91.4V85.88ZM306.594 138.04H372.114V143.48H306.594V138.04ZM388.588 119.88H438.268V125.24H388.588V119.88ZM380.188 138.44H445.708V143.96H380.188V138.44ZM388.588 87.08H437.468V92.52H395.308V121.56H388.588V87.08ZM393.148 103.24H435.948V108.52H393.148V103.24ZM495.321 87.16H500.761V100.12C500.761 116.76 491.801 132.2 479.961 138.2L475.881 132.76C486.601 127.64 495.321 113.8 495.321 100.12V87.16ZM496.441 87.16H501.881V100.12C501.881 113.32 510.521 126.6 521.241 131.56L517.241 136.84C505.481 131.08 496.441 116.2 496.441 100.12V87.16ZM528.761 80.84H535.401V153.32H528.761V80.84ZM567.635 88.36H573.075V94.2C573.075 107.48 565.075 118.52 552.995 122.84L549.475 117.64C560.435 113.8 567.635 104.52 567.635 94.2V88.36ZM568.835 88.36H574.275V94.12C574.275 103.72 581.235 112.6 591.875 116.2L588.435 121.4C576.515 117.24 568.835 106.6 568.835 94.12V88.36ZM551.555 85.96H590.195V91.4H551.555V85.96ZM599.315 80.92H605.955V124.44H599.315V80.92ZM604.115 99.96H616.675V105.48H604.115V99.96ZM558.995 128.28H605.955V153.24H599.315V133.8H558.995V128.28ZM672.429 80.92H679.069V153.24H672.429V80.92ZM677.469 110.6H690.909V116.2H677.469V110.6ZM623.069 92.44H665.709V97.88H623.069V92.44ZM644.669 103.88C654.909 103.88 662.269 110.76 662.269 120.52C662.269 130.28 654.909 137.16 644.669 137.16C634.509 137.16 627.069 130.28 627.069 120.52C627.069 110.76 634.509 103.88 644.669 103.88ZM644.669 109.4C638.109 109.4 633.389 113.96 633.389 120.52C633.389 127 638.109 131.64 644.669 131.64C651.229 131.64 655.949 127 655.949 120.52C655.949 113.96 651.229 109.4 644.669 109.4ZM641.229 81.8H647.869V94.92H641.229V81.8ZM749.703 80.92H756.343V153.24H749.703V80.92ZM728.503 88.68H735.063C735.063 109.64 725.623 127.96 701.463 139.8L697.943 134.44C718.823 124.36 728.503 109 728.503 89.8V88.68ZM701.223 88.68H731.383V94.12H701.223V88.68Z" fill="#4F2789"/>
</svg>
